PathFileType	4	(X/Y/Z)	 1.8Hz3min.trc
DataRate	CameraRate	NumFrames	NumMarkers	Units	OrigDataRate	OrigDataStartFrame	OrigNumFrames
200	200	9	35	m	200	501	1000
Frame#	Time	C7			LSH			RSH			MAN			RASI			LASI			HIPR			HIPL			RPSI			LPSI			COX			RTHI1			RTHI2			RTHI3			RTHI4			RSHA1			RSHA2			RSHA3			RSHA4			RHEEL			RMET5			RMET1			RTOE			LTHI1			LTHI2			LTHI3			LTHI4			LSHA1			LSHA2			LSHA3			LSHA4			LHEEL			LMET5			LMET1			LTOE			
		X1	Y1	Z1	X2	Y2	Z2	X3	Y3	Z3	X4	Y4	Z4	X5	Y5	Z5	X6	Y6	Z6	X7	Y7	Z7	X8	Y8	Z8	X9	Y9	Z9	X10	Y10	Z10	X11	Y11	Z11	X12	Y12	Z12	X13	Y13	Z13	X14	Y14	Z14	X15	Y15	Z15	X16	Y16	Z16	X17	Y17	Z17	X18	Y18	Z18	X19	Y19	Z19	X20	Y20	Z20	X21	Y21	Z21	X22	Y22	Z22	X23	Y23	Z23	X24	Y24	Z24	X25	Y25	Z25	X26	Y26	Z26	X27	Y27	Z27	X28	Y28	Z28	X29	Y29	Z29	X30	Y30	Z30	X31	Y31	Z31	X32	Y32	Z32	X33	Y33	Z33	X34	Y34	Z34	X35	Y35	Z35	
501	2.5050	-0.313675	1.461759	-0.559772	-0.255253	1.428051	-0.732417	-0.246280	1.425016	-0.387116	-0.196843	1.413841	-0.564328	-0.158631	1.007950	-0.474957	-0.151260	1.013490	-0.654932	-0.210453	1.073906	-0.433529	-0.194793	1.069265	-0.692629	-0.298654	1.060901	-0.505141	-0.294686	1.058524	-0.618342	-0.302938	1.068362	-0.563522	-0.278780	0.809903	-0.403932	-0.265401	0.751893	-0.395082	-0.204512	0.764702	-0.376872	-0.209433	0.825779	-0.383174	-0.304909	0.377535	-0.368334	-0.314257	0.337651	-0.371077	-0.259958	0.323558	-0.357645	-0.245997	0.364044	-0.358430	-0.352469	0.175890	-0.402917	-0.226230	0.073657	-0.349203	-0.198268	0.072742	-0.417789	-0.180302	0.059777	-0.406999	-0.236065	0.813550	-0.743180	-0.226720	0.752883	-0.747969	-0.162966	0.755504	-0.734786	-0.164956	0.814929	-0.728944	-0.302263	0.358150	-0.768102	-0.306885	0.313855	-0.766706	-0.254046	0.306923	-0.757047	-0.241573	0.345715	-0.757631	-0.363580	0.186599	-0.721390	-0.241421	0.065444	-0.767124	-0.215045	0.073366	-0.702336	-0.195225	0.053246	-0.710492	
502	2.5100	-0.313661	1.463002	-0.559997	-0.255083	1.429269	-0.732688	-0.246186	1.425994	-0.387201	-0.196769	1.415077	-0.564512	-0.158816	1.009175	-0.474871	-0.151145	1.014448	-0.654877	-0.210557	1.075223	-0.433746	-0.194664	1.070238	-0.692603	-0.298756	1.062106	-0.505310	-0.294632	1.059541	-0.618549	-0.302911	1.069451	-0.563714	-0.278621	0.811002	-0.403550	-0.265125	0.753017	-0.394743	-0.204144	0.765903	-0.376914	-0.209165	0.826955	-0.383229	-0.304641	0.378812	-0.368105	-0.313987	0.338940	-0.370903	-0.259665	0.324794	-0.357687	-0.245682	0.365259	-0.358480	-0.352239	0.176477	-0.402692	-0.224748	0.075467	-0.349401	-0.196824	0.075070	-0.418022	-0.178695	0.062221	-0.407323	-0.235345	0.814384	-0.743296	-0.225944	0.753715	-0.747934	-0.162334	0.756350	-0.734136	-0.164376	0.815789	-0.728377	-0.301969	0.359308	-0.768366	-0.306648	0.315003	-0.766998	-0.253859	0.308015	-0.757102	-0.241343	0.346817	-0.757644	-0.363783	0.187245	-0.722090	-0.240075	0.067360	-0.767168	-0.214164	0.075536	-0.702160	-0.194003	0.055703	-0.710149	
503	2.5150	-0.313626	1.464011	-0.560236	-0.254860	1.430225	-0.732972	-0.246053	1.426717	-0.387234	-0.196694	1.416066	-0.564701	-0.159056	1.010171	-0.474768	-0.151124	1.015230	-0.654816	-0.210727	1.076285	-0.433966	-0.194633	1.070974	-0.692593	-0.298923	1.063019	-0.505478	-0.294655	1.060287	-0.618746	-0.302956	1.070276	-0.563900	-0.278411	0.811877	-0.403105	-0.264774	0.753909	-0.394352	-0.203680	0.766888	-0.376981	-0.208820	0.827912	-0.383331	-0.304379	0.379865	-0.367906	-0.313753	0.340033	-0.370716	-0.259426	0.325785	-0.357759	-0.245402	0.366235	-0.358560	-0.352109	0.176892	-0.402508	-0.223435	0.077060	-0.349629	-0.195566	0.077156	-0.418277	-0.177278	0.064420	-0.407667	-0.234598	0.815035	-0.743368	-0.225125	0.754369	-0.747850	-0.161664	0.757036	-0.733450	-0.163772	0.816486	-0.727772	-0.301702	0.360272	-0.768583	-0.306460	0.315976	-0.767244	-0.253723	0.308890	-0.757133	-0.241144	0.347694	-0.757632	-0.364098	0.187722	-0.722747	-0.238854	0.069126	-0.767207	-0.213395	0.077557	-0.701982	-0.192879	0.058037	-0.709787	
504	2.5200	-0.313573	1.464786	-0.560490	-0.254584	1.430924	-0.733267	-0.245872	1.427183	-0.387201	-0.196614	1.416810	-0.564892	-0.159347	1.010937	-0.474654	-0.151190	1.015828	-0.654750	-0.210958	1.077085	-0.434184	-0.194690	1.071472	-0.692599	-0.299150	1.063649	-0.505637	-0.294754	1.060748	-0.618926	-0.303079	1.070820	-0.564077	-0.278153	0.812527	-0.402598	-0.264351	0.754570	-0.393915	-0.203136	0.767645	-0.377074	-0.208406	0.828644	-0.383464	-0.304120	0.380676	-0.367782	-0.313550	0.340888	-0.370562	-0.259212	0.326528	-0.357853	-0.245130	0.366948	-0.358650	-0.352076	0.177133	-0.402351	-0.222300	0.078433	-0.349882	-0.194506	0.078978	-0.418559	-0.176066	0.066367	-0.408035	-0.233829	0.815511	-0.743395	-0.224275	0.754851	-0.747727	-0.160964	0.757569	-0.732746	-0.163151	0.817025	-0.727147	-0.301452	0.361040	-0.768762	-0.306304	0.316749	-0.767455	-0.253619	0.309559	-0.757142	-0.240961	0.348349	-0.757586	-0.364496	0.188049	-0.723342	-0.237806	0.070691	-0.767245	-0.212763	0.079361	-0.701810	-0.191898	0.060167	-0.709433	
505	2.5250	-0.313505	1.465321	-0.560753	-0.254249	1.431362	-0.733572	-0.245651	1.427403	-0.387115	-0.196528	1.417311	-0.565082	-0.159679	1.011479	-0.474590	-0.151325	1.016230	-0.654687	-0.211257	1.077618	-0.434391	-0.194825	1.071724	-0.692613	-0.299434	1.063998	-0.505789	-0.294919	1.060935	-0.619082	-0.303277	1.071086	-0.564247	-0.277825	0.812941	-0.402079	-0.263870	0.755002	-0.393447	-0.202525	0.768171	-0.377188	-0.207931	0.829142	-0.383612	-0.303856	0.381244	-0.367707	-0.313367	0.341502	-0.370436	-0.259018	0.327013	-0.357964	-0.244864	0.367405	-0.358755	-0.352136	0.177207	-0.402220	-0.221337	0.079581	-0.350163	-0.193646	0.080522	-0.418873	-0.175060	0.068034	-0.408434	-0.233056	0.815805	-0.743375	-0.223405	0.755158	-0.747578	-0.160241	0.757939	-0.732036	-0.162521	0.817396	-0.726509	-0.301194	0.361622	-0.768910	-0.306167	0.317325	-0.767623	-0.253533	0.310012	-0.757124	-0.240783	0.348772	-0.757513	-0.364949	0.188247	-0.723855	-0.236983	0.072002	-0.767294	-0.212299	0.080881	-0.701654	-0.191110	0.062005	-0.709101	
506	2.5300	-0.313427	1.465613	-0.561021	-0.253856	1.431537	-0.733884	-0.245427	1.427361	-0.387087	-0.196436	1.417576	-0.565271	-0.160050	1.011796	-0.474587	-0.151495	1.016420	-0.654633	-0.211607	1.077877	-0.434583	-0.195030	1.071730	-0.692628	-0.299770	1.064060	-0.505929	-0.295142	1.060858	-0.619222	-0.303544	1.071085	-0.564413	-0.277429	0.813115	-0.401572	-0.263345	0.755194	-0.392964	-0.201861	0.768453	-0.377310	-0.207410	0.829397	-0.383760	-0.303582	0.381572	-0.367691	-0.313200	0.341851	-0.370386	-0.258839	0.327242	-0.358095	-0.244597	0.367615	-0.358882	-0.352294	0.177133	-0.402125	-0.220549	0.080492	-0.350465	-0.192984	0.081775	-0.419216	-0.174264	0.069412	-0.408855	-0.232288	0.815909	-0.743313	-0.222529	0.755282	-0.747399	-0.159509	0.758137	-0.731336	-0.161894	0.817586	-0.725868	-0.300931	0.361979	-0.769014	-0.306033	0.317694	-0.767746	-0.253456	0.310234	-0.757070	-0.240601	0.348958	-0.757408	-0.365429	0.188334	-0.724270	-0.236423	0.073002	-0.767359	-0.212049	0.082040	-0.701526	-0.190571	0.063450	-0.708806	
507	2.5350	-0.313340	1.465660	-0.561289	-0.253409	1.431455	-0.734198	-0.245197	1.427053	-0.387116	-0.196330	1.417597	-0.565457	-0.160454	1.011881	-0.474656	-0.151702	1.016383	-0.654583	-0.212021	1.077858	-0.434750	-0.195291	1.071504	-0.692644	-0.300154	1.063840	-0.506060	-0.295416	1.060524	-0.619348	-0.303869	1.070820	-0.564571	-0.276971	0.813045	-0.401090	-0.262787	0.755150	-0.392477	-0.201154	0.768478	-0.377420	-0.206851	0.829408	-0.383905	-0.303293	0.381666	-0.367698	-0.313053	0.341938	-0.370430	-0.258677	0.327233	-0.358246	-0.244332	0.367575	-0.359026	-0.352542	0.176887	-0.402036	-0.219932	0.081164	-0.350785	-0.192521	0.082733	-0.419586	-0.173672	0.070483	-0.409301	-0.231533	0.815810	-0.743212	-0.221658	0.755206	-0.747196	-0.158773	0.758149	-0.730656	-0.161274	0.817591	-0.725239	-0.300646	0.362116	-0.769082	-0.305891	0.317848	-0.767818	-0.253372	0.310224	-0.756978	-0.240400	0.348903	-0.757268	-0.365911	0.188331	-0.724583	-0.236171	0.073642	-0.767443	-0.212046	0.082757	-0.701428	-0.190335	0.064407	-0.708564	
508	2.5400	-0.313245	1.465460	-0.561554	-0.252914	1.431112	-0.734514	-0.244970	1.426484	-0.387211	-0.196205	1.417370	-0.565636	-0.160890	1.011729	-0.474795	-0.151943	1.016116	-0.654533	-0.212492	1.077566	-0.434890	-0.195602	1.071045	-0.692647	-0.300581	1.063347	-0.506181	-0.295738	1.059930	-0.619455	-0.304231	1.070280	-0.564712	-0.276463	0.812709	-0.400665	-0.262210	0.754854	-0.392003	-0.200434	0.768247	-0.377541	-0.206277	0.829162	-0.384037	-0.302998	0.381537	-0.367759	-0.312900	0.341772	-0.370571	-0.258517	0.326992	-0.358424	-0.244065	0.367288	-0.359188	-0.352866	0.176474	-0.401951	-0.219489	0.081588	-0.351114	-0.192244	0.083385	-0.419983	-0.173277	0.071243	-0.409769	-0.230804	0.815489	-0.743076	-0.220802	0.754911	-0.746975	-0.158045	0.757964	-0.730003	-0.160672	0.817395	-0.724633	-0.300333	0.362030	-0.769113	-0.305730	0.317776	-0.767841	-0.253272	0.309984	-0.756844	-0.240174	0.348611	-0.757093	-0.366376	0.188253	-0.724781	-0.236256	0.073886	-0.767547	-0.212316	0.082971	-0.701371	-0.190448	0.064802	-0.708402	
509	2.5450	-0.313141	1.465011	-0.561812	-0.252376	1.430508	-0.734828	-0.244756	1.425660	-0.387381	-0.196060	1.416898	-0.565806	-0.161353	1.011332	-0.475001	-0.152218	1.015615	-0.654479	-0.213014	1.077002	-0.435004	-0.195948	1.070361	-0.692636	-0.301047	1.062584	-0.506296	-0.296094	1.059104	-0.619555	-0.304619	1.069484	-0.564836	-0.275912	0.812100	-0.400311	-0.261624	0.754295	-0.391560	-0.199699	0.767746	-0.377646	-0.205707	0.828658	-0.384156	-0.302686	0.381193	-0.367844	-0.312732	0.341423	-0.370713	-0.258361	0.326520	-0.358628	-0.243800	0.366761	-0.359378	-0.353266	0.175903	-0.401887	-0.219213	0.081758	-0.351452	-0.192150	0.083724	-0.420395	-0.173074	0.071676	-0.410251	-0.230112	0.814934	-0.742912	-0.219971	0.754374	-0.746739	-0.157331	0.757555	-0.729382	-0.160095	0.816978	-0.724054	-0.299983	0.361723	-0.769107	-0.305546	0.317479	-0.767815	-0.253150	0.309502	-0.756664	-0.239918	0.348077	-0.756888	-0.366814	0.188103	-0.724866	-0.236693	0.073718	-0.767671	-0.212881	0.082648	-0.701365	-0.190943	0.064578	-0.708339	
